<?xml version="1.0" standalone="no"?>
<!DOCTYPE svg PUBLIC "-//W3C//DTD SVG 20010904//EN"
 "http://www.w3.org/TR/2001/REC-SVG-20010904/DTD/svg10.dtd">
<svg version="1.0" xmlns="http://www.w3.org/2000/svg"
 width="1000.000000pt" height="1000.000000pt" viewBox="0 0 1000.000000 1000.000000"
 preserveAspectRatio="xMidYMid meet">
<metadata>
Created by potrace 1.11, written by Peter Selinger 2001-2013
</metadata>
<g transform="translate(0.000000,1000.000000) scale(0.100000,-0.100000)"
fill="#000000" stroke="none">
<path d="M4729 9986 c-2 -2 -51 -7 -109 -10 -58 -4 -114 -9 -125 -11 -11 -2
-47 -7 -80 -10 -33 -3 -69 -7 -80 -9 -11 -2 -42 -7 -70 -10 -69 -9 -102 -15
-160 -26 -27 -6 -61 -12 -75 -15 -14 -3 -36 -7 -50 -10 -14 -3 -34 -7 -45 -9
-11 -3 -42 -10 -70 -16 -27 -6 -60 -14 -73 -16 -87 -17 -534 -159 -607 -193
-11 -6 -76 -33 -145 -61 -317 -131 -712 -356 -1005 -572 -41 -30 -278 -220
-310 -248 -195 -173 -400 -380 -530 -535 -27 -33 -52 -62 -55 -65 -3 -3 -27
-32 -53 -65 -26 -33 -52 -66 -58 -73 -54 -66 -254 -358 -305 -447 -6 -11 -35
-60 -64 -110 -118 -202 -271 -529 -356 -762 -103 -283 -198 -640 -238 -903 -8
-48 -34 -245 -40 -300 -28 -243 -28 -821 0 -1015 2 -16 6 -52 8 -80 4 -43 21
-166 41 -286 3 -19 19 -98 35 -175 17 -76 33 -150 35 -164 3 -14 8 -32 11 -40
6 -14 32 -109 39 -140 29 -125 158 -474 245 -665 79 -172 112 -238 225 -440
90 -161 242 -387 383 -569 47 -61 89 -113 92 -116 3 -3 18 -21 34 -40 133
-163 403 -434 576 -580 36 -30 67 -57 70 -60 9 -10 184 -145 255 -197 77 -56
361 -243 370 -243 3 0 22 -10 43 -23 81 -51 335 -183 452 -235 90 -40 237
-101 280 -117 243 -87 461 -153 635 -193 101 -24 329 -68 390 -75 22 -3 76
-10 120 -16 224 -29 337 -36 630 -36 228 0 441 8 505 19 14 3 52 7 85 10 33 3
71 8 85 10 14 3 46 7 71 10 25 4 95 15 155 27 60 11 123 23 139 26 43 7 343
83 390 98 222 72 302 99 311 106 6 5 19 10 30 12 21 4 43 12 89 32 17 7 58 25
93 39 331 139 684 337 977 550 73 52 246 186 255 196 3 3 17 15 31 26 97 74
385 353 515 499 254 283 493 622 659 930 26 50 60 113 76 142 39 72 157 335
186 413 13 36 30 79 38 95 58 128 191 607 229 825 3 19 8 46 11 60 3 13 7 42
10 65 3 22 8 51 11 65 5 29 11 71 19 150 4 30 8 66 10 79 19 119 27 709 12
881 -18 199 -25 263 -32 293 -2 12 -7 45 -10 72 -3 28 -8 57 -10 65 -2 8 -6
31 -9 50 -87 557 -329 1205 -642 1722 -553 912 -1381 1626 -2359 2033 -86 36
-162 65 -169 65 -6 0 -16 4 -22 8 -5 4 -27 14 -49 21 -22 7 -49 16 -60 21 -49
22 -421 128 -515 146 -14 3 -53 11 -87 19 -54 13 -160 32 -218 40 -11 2 -56 8
-100 14 -119 17 -134 19 -210 26 -38 4 -86 9 -105 11 -45 5 -656 15 -661 10z"/>
</g>
</svg>
