<?xml version="1.0" standalone="no"?>
<!DOCTYPE svg PUBLIC "-//W3C//DTD SVG 20010904//EN"
 "http://www.w3.org/TR/2001/REC-SVG-20010904/DTD/svg10.dtd">
<svg version="1.0" xmlns="http://www.w3.org/2000/svg"
 width="16.000000pt" height="16.000000pt" viewBox="0 0 16.000000 16.000000"
 preserveAspectRatio="xMidYMid meet">
<metadata>
Created by potrace 1.11, written by Peter Selinger 2001-2013
</metadata>
<g transform="translate(0.000000,16.000000) scale(0.003200,-0.003200)"
fill="#000000" stroke="none">
<path d="M0 2500 l0 -2500 2500 0 2500 0 0 2500 0 2500 -2500 0 -2500 0 0
-2500z m4800 0 l0 -2300 -2300 0 -2300 0 0 2300 0 2300 2300 0 2300 0 0 -2300z"/>
<path d="M1440 2594 l0 -1605 598 4 c610 4 660 7 816 47 199 51 326 120 457
250 84 83 102 108 142 190 54 113 73 182 88 325 19 174 -10 354 -76 485 -95
187 -296 309 -608 370 -53 11 -71 30 -28 30 41 0 201 53 281 92 115 58 231
170 283 278 56 114 71 185 71 330 1 153 -20 252 -75 367 -101 211 -306 345
-618 403 -176 33 -324 40 -838 40 l-493 0 0 -1606z m1220 1382 c382 -75 551
-238 567 -546 20 -390 -183 -599 -630 -649 -53 -6 -284 -11 -517 -11 l-420 0
0 616 0 616 458 -5 c372 -4 473 -8 542 -21z m60 -1434 c323 -69 489 -197 561
-432 32 -102 32 -306 1 -421 -55 -202 -184 -345 -381 -422 -171 -66 -206 -70
-748 -74 l-493 -4 0 691 0 692 483 -5 c437 -4 491 -6 577 -25z"/>
</g>
</svg>
