<?xml version="1.0" standalone="no"?>
<!DOCTYPE svg PUBLIC "-//W3C//DTD SVG 20010904//EN"
 "http://www.w3.org/TR/2001/REC-SVG-20010904/DTD/svg10.dtd">
<svg version="1.0" xmlns="http://www.w3.org/2000/svg"
 width="1024.000000pt" height="1024.000000pt" viewBox="0 0 1024.000000 1024.000000"
 preserveAspectRatio="xMidYMid meet">
<metadata>
Created by potrace 1.11, written by Peter Selinger 2001-2013
</metadata>
<g transform="translate(0.000000,1024.000000) scale(0.100000,-0.100000)"
fill="#000000" stroke="none">
<path d="M1386 8854 c-14 -14 -16 -89 -16 -679 0 -664 0 -664 21 -676 33 -17
609 -6 676 13 133 40 225 120 258 224 53 169 -8 355 -139 425 -25 13 -46 26
-45 29 0 3 19 19 42 35 151 110 170 377 38 528 -40 45 -116 83 -206 102 -105
22 -607 22 -629 -1z m660 -122 c99 -45 144 -119 144 -239 0 -112 -49 -185
-149 -225 -51 -20 -78 -22 -303 -26 l-248 -4 0 262 0 262 253 -4 c237 -3 255
-5 303 -26z m17 -628 c66 -28 113 -67 139 -117 18 -34 23 -58 22 -122 0 -110
-29 -164 -116 -218 -59 -36 -144 -47 -385 -47 l-233 0 0 266 0 266 263 -4
c235 -4 267 -6 310 -24z"/>
<path d="M4553 8809 l-33 -10 0 -124 0 -125 -84 0 c-91 0 -116 -12 -116 -53 1
-47 21 -57 113 -57 l86 0 3 -387 c3 -372 4 -390 24 -434 24 -51 78 -105 127
-128 20 -9 65 -14 122 -15 99 0 152 17 212 68 l32 27 -16 35 c-21 43 -42 44
-119 3 -51 -27 -67 -30 -117 -27 -66 5 -103 27 -129 79 -16 31 -18 72 -18 407
l0 372 173 0 c156 0 176 2 190 18 22 24 21 55 -1 75 -16 14 -45 17 -190 17
l-172 0 0 118 c0 103 -3 121 -18 135 -21 19 -23 19 -69 6z"/>
<path d="M5273 8809 l-33 -10 0 -124 0 -125 -84 0 c-91 0 -116 -12 -116 -53 1
-47 21 -57 113 -57 l86 0 3 -387 c3 -372 4 -390 24 -434 24 -51 78 -105 127
-128 20 -9 65 -14 122 -15 99 0 152 17 212 68 l32 27 -16 35 c-21 43 -42 44
-119 3 -51 -27 -67 -30 -117 -27 -66 5 -103 27 -129 79 -16 31 -18 72 -18 407
l0 372 173 0 c156 0 176 2 190 18 22 24 21 55 -1 75 -16 14 -45 17 -190 17
l-172 0 0 118 c0 103 -3 121 -18 135 -21 19 -23 19 -69 6z"/>
<path d="M2933 8552 c-63 -23 -127 -66 -154 -104 -11 -15 -25 -26 -30 -23 -5
4 -9 33 -9 66 l0 59 -38 0 c-75 0 -72 24 -72 -532 0 -467 1 -496 18 -511 22
-20 75 -22 90 -4 7 8 12 130 14 352 3 329 4 342 26 398 52 127 151 207 256
207 28 -1 62 -7 76 -15 51 -29 84 -15 96 41 5 27 1 32 -37 53 -58 33 -164 39
-236 13z"/>
<path d="M3610 8552 c-168 -44 -286 -175 -325 -359 -19 -87 -19 -259 0 -346
29 -140 127 -273 239 -326 189 -88 432 -58 573 72 39 36 103 128 103 149 0 11
-56 38 -79 38 -13 0 -30 -15 -46 -39 -60 -96 -159 -150 -288 -158 -221 -14
-360 106 -401 345 l-5 32 408 0 408 0 6 36 c8 49 -9 189 -33 266 -20 66 -79
160 -128 204 -104 93 -274 127 -432 86z m242 -102 c125 -35 215 -161 235 -327
l6 -53 -357 0 -356 0 6 43 c26 180 112 294 254 338 37 11 170 10 212 -1z"/>
<path d="M2810 5850 l0 -730 30 0 30 0 0 123 0 122 19 -40 c47 -101 135 -177
240 -209 67 -20 198 -21 267 -2 210 56 324 234 324 506 0 329 -168 520 -456
520 -177 0 -307 -78 -375 -225 -18 -40 -19 -39 -19 313 l0 352 -30 0 -30 0 0
-730z m619 204 c149 -66 231 -221 231 -434 0 -220 -89 -380 -248 -441 -78 -30
-214 -32 -292 -4 -78 28 -178 128 -209 210 -71 188 -42 443 66 580 35 45 112
95 172 112 74 21 208 10 280 -23z"/>
<path d="M1758 6445 c-133 -33 -250 -116 -325 -227 -159 -238 -160 -637 -1
-873 78 -118 194 -198 335 -231 96 -23 275 -15 363 15 187 64 315 211 371 426
30 115 30 336 0 450 -43 162 -112 269 -226 350 -102 73 -184 98 -335 101 -85
3 -143 -1 -182 -11z m343 -65 c157 -53 268 -170 326 -344 25 -76 27 -92 27
-256 0 -164 -2 -180 -27 -256 -88 -263 -316 -404 -589 -365 -206 29 -356 158
-425 365 -25 76 -27 92 -27 256 0 164 2 180 27 256 32 96 86 183 151 242 57
52 170 108 246 121 79 14 219 5 291 -19z"/>
<path d="M6525 6303 c-56 -12 -86 -27 -115 -54 -33 -32 -69 -101 -70 -133 0
-14 -5 -17 -22 -12 -121 35 -147 38 -248 34 -139 -7 -204 -31 -281 -107 -63
-62 -89 -123 -89 -211 0 -105 59 -209 144 -255 43 -23 45 -31 9 -38 -16 -3
-47 -19 -70 -36 -109 -79 -105 -211 9 -287 l46 -31 -38 -13 c-53 -17 -106 -63
-131 -113 -30 -58 -24 -149 14 -206 62 -93 185 -141 383 -148 205 -8 349 34
442 128 39 40 72 112 72 158 0 66 -54 147 -119 180 -71 37 -117 43 -346 50
-206 5 -234 8 -269 27 -55 28 -81 66 -81 117 0 55 31 99 93 129 43 21 58 23
169 20 203 -4 322 33 404 127 95 107 92 280 -7 390 -41 46 -45 55 -40 85 14
74 97 146 168 146 33 0 38 8 27 38 -8 22 -15 24 -54 15z m-323 -224 c161 -34
252 -147 235 -291 -18 -148 -144 -233 -342 -232 -151 1 -246 46 -303 143 -36
61 -38 174 -5 236 65 122 236 182 415 144z m176 -944 c136 -41 182 -172 96
-274 -35 -42 -155 -98 -234 -111 -193 -30 -391 9 -476 94 -109 108 -60 246
106 297 14 4 122 8 241 8 167 1 227 -2 267 -14z"/>
<path d="M4228 6121 c-170 -55 -269 -188 -298 -402 -37 -266 62 -490 257 -581
55 -26 81 -32 162 -36 152 -7 265 26 351 104 40 36 106 122 98 128 -7 6 -47
26 -52 26 -3 0 -6 -6 -6 -14 0 -8 -20 -36 -44 -63 -135 -149 -388 -174 -553
-54 -79 57 -136 167 -151 291 l-8 70 414 0 415 0 -6 89 c-17 230 -120 390
-288 442 -80 25 -213 25 -291 0z m305 -64 c69 -31 126 -88 161 -158 27 -57 56
-171 56 -227 l0 -32 -382 2 -382 3 3 49 c12 194 124 344 288 386 67 17 195 5
256 -23z"/>
<path d="M5342 6119 c-63 -25 -140 -97 -176 -165 l-25 -49 -1 108 0 107 -30 0
-30 0 0 -500 0 -500 30 0 30 0 0 303 c0 333 8 399 57 489 37 69 93 125 151
151 60 27 153 29 200 3 38 -20 38 -20 47 15 6 24 2 28 -34 43 -56 22 -153 20
-219 -5z"/>
</g>
</svg>
